<?xml version="1.0" encoding="UTF-8" standalone="no"?>
<!-- Created with Inkscape (http://www.inkscape.org/) -->
<svg
   xmlns:svg="http://www.w3.org/2000/svg"
   xmlns="http://www.w3.org/2000/svg"
   version="1.0"
   width="708.66138"
   height="651.61414"
   id="svg2">
  <defs
     id="defs4" />
  <g
     transform="translate(-2246.0069,3197.4275)"
     id="layer1">
    <g
       transform="translate(61.433004,35.464518)"
       id="g92082">
      <path
         d="M 2246.0069,-3197.4275 L 2826.5145,-3197.4275 L 2826.5145,-2616.8516 L 2246.0069,-2616.8516 L 2246.0069,-3197.4275 z"
         id="path91935"
         style="fill:#ffffff;fill-opacity:1;fill-rule:nonzero;stroke:none" />
      <path
         d="M 2247.0856,-3195.9731 L 2826.3163,-3195.9731 L 2826.3163,-2616.7424 L 2247.0856,-2616.7424 L 2247.0856,-3195.9731 z"
         id="path91945"
         style="fill:#d5002d;fill-opacity:1;fill-rule:nonzero;stroke:none" />
      <path
         d="M 2394.0592,-3026.6683 L 2393.5267,-3026.6683 L 2318.2304,-3172.7954 L 2276.483,-3172.7954 L 2276.483,-2962.9579 L 2313.4722,-2962.9579 L 2313.4722,-3112.5941 L 2313.9976,-3112.5941 L 2391.4174,-2962.9579 L 2431.0484,-2962.9579 L 2431.0484,-3172.7954 L 2394.0592,-3172.7954 L 2394.0592,-3026.6683"
         id="path91949"
         style="fill:#ffffff;fill-opacity:1;fill-rule:nonzero;stroke:none" />
      <path
         d="M 2501.9,-3006.2143 L 2571.9186,-3006.2143 L 2584.0708,-2962.9579 L 2627.1361,-2962.9579 L 2560.2918,-3172.7954 L 2514.5847,-3172.7954 L 2446.9419,-2962.9579 L 2488.6893,-2962.9579 L 2501.9,-3006.2143 z M 2536.7793,-3125.4498 L 2537.3053,-3125.4498 L 2560.8178,-3042.4525 L 2512.4683,-3042.4525 L 2536.7793,-3125.4498"
         id="path91953"
         style="fill:#ffffff;fill-opacity:1;fill-rule:evenodd;stroke:none" />
      <path
         d="M 2642.9406,-2962.9579 L 2725.1114,-2962.9579 C 2787.7295,-2962.9579 2803.8486,-3027.8355 2803.8486,-3072.8467 C 2803.8486,-3112.5941 2790.6379,-3172.7954 2726.6953,-3172.7954 L 2642.9406,-3172.7954 L 2642.9406,-2962.9579 z M 2681.7802,-3136.5572 L 2719.8273,-3136.5572 C 2736.7383,-3136.5572 2763.4251,-3131.587 2763.4251,-3069.6315 C 2763.4251,-3035.1404 2752.5908,-2999.1961 2720.3598,-2999.1961 L 2681.7802,-2999.1961 L 2681.7802,-3136.5572"
         id="path91957"
         style="fill:#ffffff;fill-opacity:1;fill-rule:evenodd;stroke:none" />
      <text
         x="2837.6294"
         y="-3151.6899"
         id="text91975"
         style="font-size:81.92510223px;fill:#d5002d;fill-opacity:1">
        <tspan
           x="2837.6294"
           y="-3151.6899"
           id="tspan91977"
           style="font-size:61.44382477px;font-variant:normal;font-weight:normal;writing-mode:lr-tb;fill:#d5002d;fill-opacity:1;fill-rule:nonzero;stroke:none;font-family:Helvetica;-inkscape-font-specification:Helvetica">®</tspan>
      </text>
    </g>
  </g>
</svg>
